<?xml version="1.0" encoding="UTF-8" standalone="no"?>
<!-- Created with Inkscape (http://www.inkscape.org/) -->

<svg
   xmlns:dc="http://purl.org/dc/elements/1.1/"
   xmlns:cc="http://creativecommons.org/ns#"
   xmlns:rdf="http://www.w3.org/1999/02/22-rdf-syntax-ns#"
   xmlns:svg="http://www.w3.org/2000/svg"
   xmlns="http://www.w3.org/2000/svg"
   xmlns:sodipodi="http://sodipodi.sourceforge.net/DTD/sodipodi-0.dtd"
   xmlns:inkscape="http://www.inkscape.org/namespaces/inkscape"
   width="500"
   height="500"
   id="svg3792"
   version="1.1"
   inkscape:version="0.48.4 r9939"
   sodipodi:docname="logo_svg.svg"
   inkscape:export-filename="/home/dennis/git/water-ship-down/public/images/favicon.png"
   inkscape:export-xdpi="2.8800001"
   inkscape:export-ydpi="2.8800001">
  <defs
     id="defs3794" />
  <sodipodi:namedview
     id="base"
     pagecolor="#ffffff"
     bordercolor="#666666"
     borderopacity="1.0"
     inkscape:pageopacity="0.0"
     inkscape:pageshadow="2"
     inkscape:zoom="0.98994949"
     inkscape:cx="184.86681"
     inkscape:cy="211.07236"
     inkscape:document-units="px"
     inkscape:current-layer="layer1"
     showgrid="false"
     inkscape:window-width="1598"
     inkscape:window-height="844"
     inkscape:window-x="0"
     inkscape:window-y="30"
     inkscape:window-maximized="1" />
  <metadata
     id="metadata3797">
    <rdf:RDF>
      <cc:Work
         rdf:about="">
        <dc:format>image/svg+xml</dc:format>
        <dc:type
           rdf:resource="http://purl.org/dc/dcmitype/StillImage" />
        <dc:title></dc:title>
      </cc:Work>
    </rdf:RDF>
  </metadata>
  <g
     inkscape:label="Ebene 1"
     inkscape:groupmode="layer"
     id="layer1"
     transform="translate(0,-552.36218)">
    <path
       sodipodi:type="arc"
       style="fill:#0188a8;fill-opacity:1"
       id="path3800"
       sodipodi:cx="-555.71429"
       sodipodi:cy="-147.14285"
       sodipodi:rx="332.85715"
       sodipodi:ry="332.85715"
       d="m -222.85715,-147.14285 a 332.85715,332.85715 0 1 1 -665.71429,0 332.85715,332.85715 0 1 1 665.71429,0 z"
       transform="matrix(0.75107295,0,0,0.75107295,667.38197,912.8772)" />
    <path
       inkscape:connector-curvature="0"
       style="fill:#ffffff;fill-opacity:1"
       d="m 225.98419,653.4058 -93.77979,68.18395 v -75.97883 h 22.57503 v -33.52546 h 38.32639 v -29.07528 c 0,-7.47122 26.24338,-13.62072 58.60918,-13.62072 32.36581,0 58.60918,6.1495 58.60918,13.62072 v 29.07528 h 38.3264 v 33.52546 h 22.54817 v 75.8978 L 277.44581,653.4058 c -14.15992,-10.27626 -37.30147,-10.27626 -51.46162,0 z M 94.33628,807.6557 c -5.367308,-16.64131 1.75317,-38.67714 15.94017,-48.9263 l 21.92795,-15.94005 93.77979,-68.15709 c 5.34036,-3.8839 12.05637,-5.79877 18.98793,-6.79682 v 227.45077 c 0,3.72207 3.02081,6.74288 6.74288,6.74288 3.72207,0 6.74288,-3.02081 6.74288,-6.74288 V 667.83544 c 6.93156,0.97097 13.64758,2.88606 18.98793,6.76995 l 93.75294,68.10293 21.9548,15.99421 c 14.16015,10.27603 21.30749,32.28477 15.94004,48.9263 l -54.0238,137.28495 c -4.20755,1.77985 -8.73876,2.93979 -13.89021,3.02084 -18.20587,-0.32396 -30.20808,-10.7886 -39.78307,-34.19991 -0.10789,-0.3776 -0.26972,-0.56651 -0.43155,-0.94411 -0.0535,-0.21577 -0.18869,-0.26971 -0.26971,-0.53943 h -0.0262 c -0.94411,-1.42937 -2.37349,-2.37349 -3.99177,-2.37349 -1.61829,0 -2.99395,0.94412 -3.93784,2.37349 -0.2968,0.56651 -0.56652,1.10594 -0.72835,1.78012 -9.65579,23.49204 -21.87377,33.98405 -40.43016,33.98405 h -0.13497 c -18.74509,0 -30.9362,-10.54568 -40.64595,-34.28063 -0.10788,-0.3776 -0.32366,-0.56651 -0.48548,-0.94411 -0.0535,-0.21577 -0.13497,-0.26971 -0.21578,-0.53943 h 0 c -0.99805,-1.42937 -2.40057,-2.37349 -3.99177,-2.37349 -1.64538,0 -2.96687,0.94412 -3.93784,2.37349 -0.2968,0.56651 -0.56652,1.10594 -0.72835,1.78012 -9.49396,22.9797 -21.46931,33.39076 -39.40525,33.82228 -5.04378,-0.13503 -9.49396,-1.24067 -13.67465,-2.96685 L 94.33632,807.6557 z m 184.9436,-53.99695 c 0,5.87979 4.74698,10.62678 10.62676,10.62678 5.85294,0 10.59969,-4.74699 10.59969,-10.62678 0,-5.8527 -4.74675,-10.59969 -10.59969,-10.59969 -5.87978,0 -10.62676,4.74699 -10.62676,10.59969 z m -75.57415,0 c 0,5.87979 4.74699,10.62678 10.62678,10.62678 5.85292,0 10.59991,-4.74699 10.59991,-10.62678 0,-5.8527 -4.74699,-10.59969 -10.59991,-10.59969 -5.87979,0 -10.62678,4.74699 -10.62678,10.59969 z M 521.43,974.44743 h -0.67417 v 93.91477 H -17.6224 V 974.44743 H -18 c 18.5563917,0 30.855396,-10.49179 40.538167,-33.98408 0.16183,-0.67412 0.3776,-1.21384 0.70126,-1.78007 l 0,0 c 0.944004,-1.42938 2.373489,-2.37356 3.937836,-2.37356 1.699204,0 3.04778,0.94418 3.937839,2.37356 h 0.161829 c 0.02694,0.26965 0.107886,0.32364 0.215772,0.5394 0.161829,0.37763 0.296687,0.56655 0.431544,0.94386 9.682768,23.76205 21.900858,34.28089 40.61908,34.28089 h 0.08089 c 18.556389,0 30.882343,-10.49179 40.565253,-33.98408 0.13472,-0.67412 0.35048,-1.21384 0.67414,-1.78007 h 0.0534 c 0.88997,-1.42938 2.29249,-2.37356 3.96473,-2.37356 1.64533,0 3.02081,0.94418 3.93784,2.37356 h 0.0808 c 0.0262,0.26965 0.13478,0.32364 0.21577,0.5394 0.16183,0.37763 0.29661,0.56655 0.4045,0.94386 9.5479,23.22265 21.52325,33.71466 39.51332,34.14618 17.93597,-0.43152 29.91132,-10.84281 39.40528,-33.82254 0.18889,-0.67411 0.4586,-1.21361 0.72832,-1.77985 l 0,0 c 0.97097,-1.42959 2.31955,-2.37346 3.93784,-2.37346 1.61828,0 2.99375,0.94387 3.99177,2.37346 h 0.0262 c 0.0811,0.26975 0.16183,0.32364 0.21577,0.53918 0.16183,0.37785 0.37761,0.56656 0.48549,0.94409 9.68285,23.76204 21.90086,34.28067 40.64613,34.28067 h 0.13478 c 18.55639,0 30.77456,-10.49179 40.43036,-33.98409 0.18871,-0.67411 0.45843,-1.21361 0.72814,-1.77985 l 0,0 c 0.94409,-1.42959 2.31955,-2.37346 3.93784,-2.37346 1.6183,0 3.04786,0.94387 3.99179,2.37346 h 0.0262 c 0.0808,0.26975 0.21578,0.32364 0.26972,0.53918 0.16183,0.37785 0.32366,0.56656 0.43154,0.94409 9.54792,23.38419 21.5772,33.8762 39.78289,34.19994 18.0709,-0.32374 30.0733,-10.78859 39.67516,-33.8762 0.13477,-0.67422 0.3776,-1.21362 0.70126,-1.78017 l 0,0 c 0.94392,-1.4296 2.29249,-2.37346 3.93784,-2.37346 1.67222,0 3.07474,0.94386 3.93783,2.37346 h 0.10789 c 0.0534,0.26975 0.16183,0.32364 0.29661,0.5394 0.10788,0.37763 0.24282,0.56655 0.3776,0.94418 9.65579,23.76173 21.90086,34.28067 40.61908,34.28067 h 0.13494 c 18.58328,0 30.82834,-10.49179 40.48413,-33.98408 0.16183,-0.67422 0.40466,-1.21362 0.72832,-1.78017 l 0,0 c 0.94392,-1.4296 2.34644,-2.37346 3.96473,-2.37346 1.67223,0 3.04785,0.94386 3.93784,2.37346 h 0.0537 c 0.10789,0.26975 0.18888,0.32364 0.32366,0.5394 0.0809,0.37763 0.24282,0.56655 0.32366,0.94418 9.70973,23.681 21.9279,34.22668 40.61907,34.22668 z"
       id="path3" />
  </g>
</svg>
