<?xml version="1.0" encoding="UTF-8" standalone="no"?>
<!-- Created with Inkscape (http://www.inkscape.org/) -->

<svg
   xmlns:dc="http://purl.org/dc/elements/1.1/"
   xmlns:cc="http://creativecommons.org/ns#"
   xmlns:rdf="http://www.w3.org/1999/02/22-rdf-syntax-ns#"
   xmlns:svg="http://www.w3.org/2000/svg"
   xmlns="http://www.w3.org/2000/svg"
   xmlns:sodipodi="http://sodipodi.sourceforge.net/DTD/sodipodi-0.dtd"
   xmlns:inkscape="http://www.inkscape.org/namespaces/inkscape"
   width="520"
   height="442"
   id="svg3792"
   version="1.1"
   inkscape:version="0.48.4 r9939"
   sodipodi:docname="logo_svg.svg"
   inkscape:export-filename="/home/dennis/git/water-ship-down/public/images/logo_highres_png.png"
   inkscape:export-xdpi="90"
   inkscape:export-ydpi="90">
  <defs
     id="defs3794" />
  <sodipodi:namedview
     id="base"
     pagecolor="#ff00ff"
     bordercolor="#666666"
     borderopacity="1.0"
     inkscape:pageopacity="0"
     inkscape:pageshadow="2"
     inkscape:zoom="0.98994949"
     inkscape:cx="184.86681"
     inkscape:cy="211.07236"
     inkscape:document-units="px"
     inkscape:current-layer="layer1"
     showgrid="false"
     inkscape:window-width="1598"
     inkscape:window-height="844"
     inkscape:window-x="0"
     inkscape:window-y="30"
     inkscape:window-maximized="1" />
  <metadata
     id="metadata3797">
    <rdf:RDF>
      <cc:Work
         rdf:about="">
        <dc:format>image/svg+xml</dc:format>
        <dc:type
           rdf:resource="http://purl.org/dc/dcmitype/StillImage" />
        <dc:title></dc:title>
      </cc:Work>
    </rdf:RDF>
  </metadata>
  <g
     inkscape:label="Ebene 1"
     inkscape:groupmode="layer"
     id="layer1"
     transform="translate(0,-610.36218)">
    <path
       sodipodi:type="arc"
       style="fill:#ffffff;fill-opacity:1"
       id="path2984"
       sodipodi:cx="-253.6906"
       sodipodi:cy="134.91362"
       sodipodi:rx="150.37042"
       sodipodi:ry="92.934036"
       d="m -103.32018,134.91362 a 150.37042,92.934036 0 1 1 -300.74084,0 150.37042,92.934036 0 1 1 300.74084,0 z"
       transform="matrix(1.7290634,0,0,2.7976833,698.64714,492.91659)" />
    <path
       style="fill:#ffffff;fill-opacity:1;stroke:#000000;stroke-width:1px;stroke-linecap:butt;stroke-linejoin:miter;stroke-opacity:1"
       d="m 77.680221,764.66315 c 4.257679,-0.80983 0.242318,-3.51509 1.010152,-5.05076 0.425918,-0.85184 1.594388,-1.16847 2.020305,-2.0203 0.150585,-0.30117 0,-0.67344 0,-1.01016 0.336718,-0.67343 0.592506,-1.39383 1.010153,-2.0203 0.528286,-0.79243 1.492019,-1.22788 2.020305,-2.02031 0.417647,-0.62647 0.592506,-1.39383 1.010153,-2.0203 0.264143,-0.39622 0.746009,-0.61394 1.010152,-1.01016 1.243265,-1.86489 1.787193,-4.19601 3.030458,-6.06091 0.264143,-0.39621 0.746009,-0.61394 1.010152,-1.01015 0.417647,-0.62647 0.673435,-1.34687 1.010153,-2.02031 1.010152,-2.0203 2.020305,-4.04061 3.030458,-6.06091 0.336717,-0.67344 0.592505,-1.39384 1.010152,-2.02031 0.528286,-0.79243 1.492019,-1.22787 2.020305,-2.0203 0.417647,-0.62647 0.592506,-1.39384 1.010153,-2.02031 0.528286,-0.79243 1.34687,-1.34687 2.020305,-2.0203 1.010153,-1.01016 2.020303,-2.02031 3.030453,-3.03046 0.33672,-0.33672 0.7972,-0.58424 1.01016,-1.01015 1.48634,-2.97269 -2.34011,1.32995 1.01015,-2.02031 0.53181,-0.53181 2.7607,-2.49095 3.03046,-3.03046 0.15058,-0.30117 -0.15059,-0.70898 0,-1.01015 0.42591,-0.85184 1.59438,-1.16847 2.0203,-2.02031 0.15059,-0.30117 -0.15058,-0.70898 0,-1.01015 0.42592,-0.85183 1.49202,-1.22788 2.02031,-2.0203 0.41764,-0.62647 0.5925,-1.39384 1.01015,-2.02031 0.52829,-0.79243 1.49202,-1.22788 2.02031,-2.0203 0.41764,-0.62647 0.5925,-1.39384 1.01015,-2.02031 0.26414,-0.39621 0.74601,-0.61394 1.01015,-1.01015 0.41765,-0.62647 0.47776,-1.48791 1.01015,-2.02031 2.45346,-2.45346 1.48333,0.30039 3.03046,-2.0203 0.41765,-0.62647 0.59251,-1.39384 1.01015,-2.02031 0.52829,-0.79243 1.49202,-1.22787 2.02031,-2.0203 0.41764,-0.62647 0.5925,-1.39384 1.01015,-2.02031 0.26414,-0.39621 0.74601,-0.61394 1.01015,-1.01015 3.6621,-7.32419 -1.06479,1.59719 2.02031,-3.03046 0.83529,-1.25294 1.18501,-2.78767 2.0203,-4.04061 0.92645,-1.38967 1.55838,-1.03892 3.03046,-2.0203 0.79243,-0.52829 1.16847,-1.59439 2.02031,-2.02031 0.30117,-0.15058 0.70898,0.15059 1.01015,0 4.20401,-2.102 -1.07989,0.0697 1.01015,-2.0203 0.2381,-0.2381 0.70898,0.15058 1.01015,0 0.42592,-0.21296 0.58424,-0.7972 1.01016,-1.01016 0.30117,-0.15058 0.70898,0.15059 1.01015,0 0.85183,-0.42591 1.16847,-1.59438 2.0203,-2.0203 0.30117,-0.15059 0.70899,0.15058 1.01016,0 0.42591,-0.21296 0.61393,-0.74601 1.01015,-1.01015 1.25294,-0.8353 2.69374,-1.34687 4.04061,-2.02031 1.98972,-0.99486 3.99626,-2.20459 6.06091,-3.03046 1.97728,-0.79091 4.08365,-1.22939 6.06092,-2.0203 0.69907,-0.27963 1.28986,-0.82754 2.0203,-1.01015 7.19552,-1.79888 -5.1177,3.05723 5.05077,-1.01016 2.06465,-0.82586 4.0712,-2.0356 6.06091,-3.03045 0.67344,-0.33672 1.28987,-0.82755 2.02031,-1.01016 0.65333,-0.16333 1.36698,0.16334 2.0203,0 0.73045,-0.18261 1.30602,-0.77205 2.02031,-1.01015 0.31944,-0.10648 0.70898,0.15059 1.01015,0 0.42592,-0.21296 0.5584,-0.85957 1.01015,-1.01015 4.59851,0 0.0578,0.47619 3.03046,-1.01015 0.80812,-0.40407 2.22234,0.40406 3.03046,0 0.42592,-0.21296 0.58423,-0.7972 1.01015,-1.01016 0.60234,-0.30117 1.54412,0.47619 2.02031,0 0.23809,-0.23809 -0.15059,-0.70898 0,-1.01015 2.102,-4.20401 -0.0697,1.07989 2.0203,-1.01015 0.2381,-0.2381 -0.23809,-0.77206 0,-1.01015 0.2381,-0.2381 0.77206,0.23809 1.01015,0 0.2381,-0.2381 -0.23809,-0.77206 0,-1.01016 0.2381,-0.23809 0.77206,0.2381 1.01016,0 0.23809,-0.23809 -0.2381,-0.77205 0,-1.01015 0.23809,-0.2381 0.77205,0.2381 1.01015,0 0.47619,-0.47619 -0.47619,-1.54411 0,-2.0203 0.23809,-0.2381 0.77206,0.23809 1.01015,0 0.50508,-0.50508 -0.50507,-2.52539 0,-3.03046 0.2381,-0.2381 0.77206,0.23809 1.01015,0 0.47619,-0.47619 -0.47619,-1.54412 0,-2.02031 0.2381,-0.23809 0.77206,0.2381 1.01016,0 0.47619,-0.47619 -0.47619,-1.54411 0,-2.0203 0.23809,-0.2381 0.77205,0.23809 1.01015,0 0.23809,-0.2381 -0.2381,-0.77206 0,-1.01016 0.23809,-0.23809 0.77206,0.2381 1.01015,0 0.2381,-0.23809 -0.23809,-0.77205 0,-1.01015 0.2381,-0.23809 0.77206,0.2381 1.01015,0 0.2381,-0.23809 -0.23809,-0.77206 0,-1.01015 0.2381,-0.2381 0.77206,0.23809 1.01016,0 0.23809,-0.2381 -0.2381,-0.77206 0,-1.01015 0.23809,-0.2381 0.77205,0.23809 1.01015,0 0.23809,-0.2381 -0.2381,-0.77206 0,-1.01016 0.23809,-0.23809 0.77206,0.2381 1.01015,0 0.2381,-0.23809 -0.23809,-0.77205 0,-1.01015 0.47619,-0.47619 1.54412,0.47619 2.02031,0 0.23809,-0.23809 -0.2381,-0.77206 0,-1.01015 0.47619,-0.47619 1.54411,0.47619 2.0203,0 0.2381,-0.2381 -0.23809,-0.77206 0,-1.01015 0.2381,-0.2381 0.77206,0.23809 1.01015,0 0.2381,-0.2381 -0.23809,-0.77206 0,-1.01016 0.4762,-0.47619 1.54412,0.47619 2.02031,0 0.23809,-0.23809 -0.2381,-0.77205 0,-1.01015 0.47619,-0.47619 1.54411,0.47619 2.0203,0 0.2381,-0.23809 -0.23809,-0.77206 0,-1.01015 0.24308,-0.24307 3.79754,0.24307 4.04061,0 0.2381,-0.2381 -0.23809,-0.77206 0,-1.01015 0.4762,-0.47619 1.54412,0.47619 2.02031,0 0.2381,-0.2381 -0.2381,-0.77206 0,-1.01016 0.24307,-0.24307 3.79754,0.24308 4.04061,0 0.2381,-0.23809 -0.2381,-0.77205 0,-1.01015 0.0325,-0.0325 2.78547,0 3.03046,0 6.73435,0 13.4687,0 20.20305,0 7.40778,0 14.81557,0 22.22335,0 0.37097,0 3.99997,-0.0407 4.04062,0 0.23809,0.2381 -0.2381,0.77206 0,1.01015 0.23809,0.2381 0.67343,0 1.01015,0 0.7026,0 4.68546,-0.18265 5.05076,0 0.42592,0.21296 0.58424,0.7972 1.01015,1.01016 0.36531,0.18265 4.34816,0 5.05077,0 0.33671,0 0.77205,-0.2381 1.01015,0 0.23809,0.23809 -0.2381,0.77205 0,1.01015 0.0407,0.0407 3.66964,0 4.04061,0 0.716,0 5.79974,-0.13059 6.06091,0 0.42592,0.21296 0.58424,0.79719 1.01016,1.01015 0.60233,0.30117 1.54411,-0.47619 2.0203,0 0.2381,0.2381 -0.23809,0.77206 0,1.01015 0.31279,0.3128 4.73797,-0.31279 5.05076,0 0.2381,0.2381 -0.23809,0.77206 0,1.01016 0.50508,0.50507 2.52539,-0.50508 3.03046,0 0.2381,0.23809 -0.23809,0.77205 0,1.01015 0.47619,0.47619 1.41797,-0.30117 2.02031,0 0.42591,0.21296 0.58423,0.79719 1.01015,1.01015 0.40052,0.20026 2.82395,-0.20651 3.03046,0 0.23809,0.2381 -0.2381,0.77206 0,1.01015 0.47619,0.47619 1.41796,-0.30116 2.0203,0 0.42592,0.21296 0.58424,0.7972 1.01015,1.01016 0.30117,0.15058 0.70899,-0.15059 1.01016,0 0.42591,0.21296 0.58423,0.79719 1.01015,1.01015 0.60234,0.30117 1.54411,-0.47619 2.0203,0 0.2381,0.23809 -0.23809,0.77206 0,1.01015 0.4762,0.47619 1.54412,-0.47619 2.02031,0 0.2381,0.2381 -0.2381,0.77206 0,1.01015 0.47619,0.4762 1.54411,-0.47619 2.02031,0 0.23809,0.2381 -0.2381,0.77206 0,1.01016 0.47619,0.47619 1.54411,-0.47619 2.0203,0 0.2381,0.23809 -0.2381,0.77205 0,1.01015 0.47619,0.47619 1.54411,-0.47619 2.02031,0 0.23809,0.2381 -0.2381,0.77206 0,1.01015 0.23809,0.2381 0.77205,-0.23809 1.01015,0 0.23809,0.2381 -0.2381,0.77206 0,1.01015 0.47619,0.4762 1.41796,-0.30116 2.0203,0 0.42592,0.21296 0.58424,0.7972 1.01016,1.01016 0.30116,0.15058 0.77205,-0.2381 1.01015,0 0.23809,0.23809 -0.15059,0.70898 0,1.01015 1.02151,2.04301 2.34423,0.32393 3.03046,1.01015 0.23809,0.2381 -0.2381,0.77206 0,1.01016 0.23809,0.23809 0.77205,-0.2381 1.01015,0 0.23809,0.23809 -0.2381,0.77205 0,1.01015 0.47619,0.47619 1.41796,-0.30117 2.0203,0 4.20402,2.102 -1.07989,-0.0697 1.01016,2.0203 0.23809,0.2381 0.70898,-0.15058 1.01015,0 0.42592,0.21296 0.58423,0.7972 1.01015,1.01016 0.30117,0.15058 0.70898,-0.15059 1.01015,0 0.85184,0.42591 1.16847,1.59438 2.02031,2.0203 0.30117,0.15059 0.77206,-0.23809 1.01015,0 0.2381,0.2381 -0.23809,0.77206 0,1.01015 0.2381,0.2381 0.77206,-0.23809 1.01015,0 0.2381,0.2381 -0.15058,0.70899 0,1.01016 1.11676,2.2335 0.62695,0.31347 2.02031,1.01015 1.21218,0.60609 1.81827,2.42436 3.03046,3.03046 0.60234,0.30116 1.41796,-0.30117 2.0203,0 0.42592,0.21295 0.58424,0.79719 1.01015,1.01015 0.30117,0.15058 0.70899,-0.15059 1.01016,0 0.42591,0.21296 0.58423,0.79719 1.01015,1.01015 0.30117,0.15059 0.70898,-0.15058 1.01015,0 0.42592,0.21296 0.67344,0.67344 1.01015,1.01015 0.33672,0.33672 0.7972,0.58424 1.01016,1.01016 0.15058,0.30117 -0.2381,0.77205 0,1.01015 0.23809,0.23809 0.70898,-0.15059 1.01015,0 0.42592,0.21296 0.58423,0.79719 1.01015,1.01015 0.30117,0.15059 0.77206,-0.23809 1.01015,0 0.2381,0.2381 -0.23809,0.77206 0,1.01015 0.2381,0.2381 0.77206,-0.23809 1.01016,0 0.23809,0.2381 -0.2381,0.77206 0,1.01016 0.47619,0.47619 1.41796,-0.30117 2.0203,0 4.20402,2.102 -1.07989,-0.0697 1.01015,2.0203 0.2381,0.2381 0.77206,-0.23809 1.01016,0 0.23809,0.2381 -0.2381,0.77206 0,1.01015 0.23809,0.2381 0.77205,-0.23809 1.01015,0 0.23809,0.2381 -0.2381,0.77206 0,1.01016 0.23809,0.23809 0.77206,-0.2381 1.01015,0 2.09004,2.09004 -3.19386,-0.0817 1.01015,2.0203 1.39337,0.69668 0.90356,-1.22335 2.02031,1.01015 0.15058,0.30117 -0.15058,0.70899 0,1.01016 1.06667,2.13333 0.95364,-0.11303 2.02031,2.0203 0.15058,0.30117 -0.15059,0.70898 0,1.01015 0.21295,0.42592 0.67343,0.67344 1.01015,1.01016 0.79374,0.79374 4.72904,4.40732 5.05076,5.05076 0.15058,0.30117 -0.15058,0.70898 0,1.01015 0.21296,0.42592 0.74601,0.61394 1.01015,1.01015 0.41765,0.62647 0.59251,1.39384 1.01016,2.02031 0.26414,0.39621 0.79719,0.58423 1.01015,1.01015 0.15058,0.30117 -0.15059,0.70899 0,1.01015 0.60609,1.21219 2.42436,1.81828 3.03046,3.03046 0.15058,0.30117 -0.15059,0.70899 0,1.01015 0.42591,0.85184 1.59438,1.16847 2.0203,2.02031 0.15059,0.30117 -0.23809,0.77206 0,1.01015 0.2381,0.2381 0.70898,-0.15058 1.01015,0 4.20402,2.10201 -1.07989,-0.0697 1.01016,2.02031 0.23809,0.23809 0.77205,-0.2381 1.01015,0 0.23809,0.23809 -0.15059,0.70898 0,1.01015 0.42592,0.85184 1.59439,1.16847 2.0203,2.02031 0.15059,0.30116 -0.15058,0.70898 0,1.01015 0.23389,0.46778 3.4465,3.44649 4.04061,4.04061 0.33672,0.33672 0.7972,0.58423 1.01016,1.01015 0.15058,0.30117 0,0.67344 0,1.01015 0.33671,0.67344 0.5925,1.39384 1.01015,2.02031 0.99094,1.48641 3.04967,2.5542 4.04061,4.04061 1.24326,1.8649 1.78719,4.19602 3.03046,6.06092 3.0851,4.62765 -1.64179,-4.29374 2.0203,3.03045 0.67344,1.34687 1.18501,2.78767 2.02031,4.04061 0.52828,0.79243 1.49202,1.22788 2.0203,2.02031 0.41765,0.62647 0.59251,1.39383 1.01015,2.0203 0.26415,0.39622 0.74601,0.61394 1.01016,1.01016 0.83529,1.25294 1.18501,2.78767 2.0203,4.04061 0.26415,0.39621 0.7972,0.58423 1.01015,1.01015 0.15059,0.30117 -0.15058,0.70898 0,1.01015 0.21296,0.42592 0.74601,0.61394 1.01016,1.01015 0.41764,0.62647 0.67343,1.34687 1.01015,2.02031 0.67343,1.34687 1.46105,2.64247 2.0203,4.04061 0.39546,0.98864 0.6147,2.04182 1.01016,3.03046 0.55925,1.39814 1.46105,2.64246 2.0203,4.04061 0.39546,0.98863 0.6147,2.04182 1.01015,3.03046 0.82587,2.06465 2.0356,4.07119 3.03046,6.06091 0.33672,0.67344 0.82754,1.28986 1.01016,2.02031 0.16333,0.65332 -0.16334,1.36697 0,2.0203 0.36522,1.46089 1.65508,2.57973 2.0203,4.04061 0.16333,0.65333 -0.16333,1.36698 0,2.02031 0.50151,2.00604 2.52895,4.05486 3.03046,6.06091 1.79888,7.19551 -3.05724,-5.11771 1.01015,5.05076 0.27963,0.69908 0.73052,1.32124 1.01015,2.02031 0.39546,0.98864 0.6147,2.04182 1.01016,3.03046 0.94212,2.35531 1.54169,2.17911 2.0203,5.05076 0.16607,0.99641 -0.16607,2.03405 0,3.03046 0.17505,1.0503 0.71763,2.00663 1.01015,3.03045 0.3814,1.33491 0.46327,2.76455 1.01016,4.04062 0.47823,1.11589 1.54206,1.91456 2.0203,3.03045 0.54689,1.27607 0.52268,2.74069 1.01015,4.04061 0.52874,1.40997 1.49157,2.63065 2.02031,4.04061 0.48747,1.29993 0.62875,2.70571 1.01015,4.04061 -0.63015,0.21155 1.86219,4.57642 2.02031,5.05077 0.43902,1.31707 0.52268,2.74068 1.01015,4.04061 0.52874,1.40996 1.42712,2.65652 2.0203,4.04061 0.41945,0.9787 0.59071,2.05175 1.01016,3.03045 0.59318,1.3841 1.49156,2.63065 2.0203,4.04061 0.48747,1.29993 0.52268,2.74069 1.01015,4.04061 0.52874,1.40997 1.65509,2.57973 2.02031,4.04061 0.32666,1.30666 -0.19048,2.70728 0,4.04061 0.15058,1.0541 0.89256,1.97218 1.01015,3.03046 0.22311,2.00795 -0.3614,4.0732 0,6.06092 0.32437,1.78403 1.66469,3.27269 2.02031,5.05076 0.33018,1.65089 0,3.36718 0,5.05076 0,1.68359 0,3.36718 0,5.05077 0,6.06091 0,12.12183 0,18.18274 0,5.05076 0,10.10153 0,15.15229 0,0.97705 0.1498,5.76132 0,6.06092 -0.21296,0.42591 -0.85957,0.55839 -1.01016,1.01015 -0.42591,1.27775 0.32667,2.73395 0,4.04061 -1.21949,4.87797 -0.48004,-0.0501 -2.0203,3.03046 -0.15059,0.30117 0.15058,0.70898 0,1.01015 -0.21296,0.42592 -0.79719,0.58423 -1.01015,1.01015 -0.15059,0.30117 0.15058,0.70898 0,1.01015 -0.21296,0.42592 -0.67344,0.67344 -1.01016,1.01016 -0.33671,0.33671 -0.79719,0.58423 -1.01015,1.01015 -0.15058,0.30117 0.15059,0.70898 0,1.01015 -0.42592,0.85184 -1.59439,1.16847 -2.0203,2.02031 -0.15059,0.30117 0,0.67343 0,1.01015 -0.33672,0.67343 -0.59251,1.39383 -1.01016,2.0203 -0.26414,0.39622 -0.67343,0.67344 -1.01015,1.01016 -1.01015,1.01015 -2.0203,2.0203 -3.03046,3.03045 -0.33671,0.33672 -0.74601,0.61394 -1.01015,1.01016 -0.41765,0.62647 -0.47775,1.4879 -1.01015,2.0203 -1.0648,1.0648 -2.83593,1.1168 -4.04061,2.02031 -0.76191,0.57143 -1.2584,1.44887 -2.02031,2.0203 -0.81557,0.61168 -3.22503,1.40863 -4.04061,2.02031 -1.14285,0.85714 -1.84181,2.23803 -3.03045,3.03045 -0.62647,0.41765 -1.39384,0.59251 -2.02031,1.01016 -0.39621,0.26414 -0.61394,0.74601 -1.01015,1.01015 -0.62647,0.41765 -1.39384,0.59251 -2.02031,1.01015 -0.79243,0.52829 -1.22787,1.49202 -2.0203,2.02031 -0.62647,0.41764 -1.39384,0.5925 -2.02031,1.01015 -1.16556,0.77704 -1.86489,2.25342 -3.03046,3.03046 -0.62647,0.41764 -1.39383,0.5925 -2.0203,1.01015 -0.39621,0.26414 -0.58424,0.79719 -1.01015,1.01015 -0.30117,0.15059 -0.70899,-0.15058 -1.01016,0 -0.42591,0.21296 -0.67343,0.67344 -1.01015,1.01016 -0.78901,0.78901 -2.15879,2.44935 -3.03046,3.03045 -0.62647,0.41765 -1.39383,0.59251 -2.0203,1.01016 -0.79243,0.52828 -1.22788,1.49201 -2.02031,2.0203 -0.62647,0.41765 -1.39383,0.59251 -2.0203,1.01015 -0.39622,0.26415 -0.67344,0.67344 -1.01015,1.01016 -1.01016,1.01015 -2.02031,2.0203 -3.03046,3.03045 -0.53181,0.53181 -2.76071,2.49095 -3.03046,3.03046 -0.15058,0.30117 0.2381,0.77206 0,1.01015 -0.23809,0.2381 -0.70898,-0.15058 -1.01015,0 -0.26821,0.13411 -2.89636,2.76225 -3.03046,3.03046 -0.30117,0.60234 0.47619,1.54412 0,2.02031 -0.23809,0.23809 -0.77206,-0.2381 -1.01015,0 -0.2381,0.23809 0.23809,0.77205 0,1.01015 -0.2381,0.23809 -0.77206,-0.2381 -1.01015,0 -0.2381,0.23809 0.23809,0.77206 0,1.01015 -0.2381,0.2381 -0.77206,-0.23809 -1.01016,0 -0.23809,0.2381 0.2381,0.7721 0,1.0101 -0.23809,0.2381 -0.77205,-0.238 -1.01015,0 -0.23809,0.2381 0.2381,0.7721 0,1.0102 -0.23809,0.2381 -0.77206,-0.2381 -1.01015,0 -0.2381,0.2381 0.23809,0.7721 0,1.0102 -0.2381,0.238 -0.70898,-0.1506 -1.01015,0 -0.42592,0.2129 -0.58424,0.7971 -1.01016,1.0101 -0.30117,0.1506 -0.77205,-0.2381 -1.01015,0 -0.23809,0.2381 0.2381,0.7721 0,1.0102 -0.23809,0.2381 -0.77206,-0.2381 -1.01015,0 -0.66667,0.6666 0.66666,1.3536 0,2.0203 -0.47619,0.4762 -1.54412,-0.4762 -2.02031,0 -0.23809,0.2381 0.2381,0.772 0,1.0101 -0.23809,0.2381 -0.77205,-0.2381 -1.01015,0 0,2.69383 0.33672,-0.3367 -1.01015,1.0102 -0.2381,0.2381 0.23809,0.772 0,1.01013 -0.2381,0.2381 -0.70899,-0.15063 -1.01015,0 -0.42592,0.213 -0.58424,0.7972 -1.01016,1.0102 -0.30117,0.1506 -0.77205,-0.2381 -1.01015,0 -0.23809,0.2381 0.2381,0.772 0,1.0101 -0.23809,0.2381 -0.77206,-0.2381 -1.01015,0 -0.2381,0.2381 0.23809,0.7721 0,1.0102 -2.09004,2.09 0.0817,-3.19393 -2.02031,1.0101 -0.15058,0.3012 0.2381,0.7721 0,1.0102 -0.23809,0.2381 -0.77205,-0.2381 -1.01015,0 -0.2381,0.2381 0.15058,0.709 0,1.0101 -0.21296,0.426 -0.79719,0.5843 -1.01015,1.0102 -0.30117,0.6023 0.47619,1.5441 0,2.0203 -0.2381,0.2381 -0.77206,-0.2381 -1.01015,0 -0.2381,0.2381 0.23809,0.7721 0,1.0101 -0.2381,0.2381 -0.77206,-0.238 -1.01016,0 -0.47619,0.4762 0.47619,1.5442 0,2.0204 -0.23809,0.238 -0.77205,-0.2381 -1.01015,0 -0.47619,0.4761 0.47619,1.5441 0,2.0203 -0.2381,0.2381 -0.77206,-0.2381 -1.01015,0 -0.66667,0.6666 0.66666,1.3536 0,2.0203 -0.2381,0.2381 -0.77206,-0.2381 -1.01016,0 -0.23809,0.2381 0.2381,0.772 0,1.0101 -0.23809,0.2381 -0.77205,-0.2381 -1.01015,0 -0.23809,0.2381 0.2381,0.7721 0,1.0102 -0.47619,0.4762 -1.54411,-0.4762 -2.0203,0 -0.2381,0.2381 0.23809,0.772 0,1.0101 -0.2381,0.2381 -0.77206,-0.2381 -1.01016,0 -0.23809,0.2381 0.2381,0.7721 0,1.0102 -0.23809,0.2381 -0.77205,-0.2381 -1.01015,0 -0.23809,0.2381 0.2381,0.772 0,1.0101 -0.23809,0.2381 -0.70898,-0.1506 -1.01015,0 -0.42592,0.213 -0.58424,0.7972 -1.01015,1.0102 -1.39336,0.6967 -0.90356,-1.2234 -2.02031,1.0101 -0.15058,0.3012 0.2381,0.7721 0,1.0102 -0.47619,0.4762 -1.54411,-0.4762 -2.0203,0 -0.2381,0.2381 0.23809,0.772 0,1.0101 -0.2381,0.2381 -0.67344,0 -1.01016,0 -0.33671,0 -0.67343,0 -1.01015,0 -0.33672,0 -0.67343,0 -1.01015,0 -0.33672,0 -0.77206,-0.2381 -1.01015,0 -0.2381,0.2381 0.23809,0.7721 0,1.0102 -0.20652,0.2065 -2.62994,-0.2003 -3.03046,0 -0.42592,0.2129 -0.58424,0.7972 -1.01015,1.0101 -0.26118,0.1306 -5.34492,0 -6.06092,0 -0.716,0 -5.79974,0.1306 -6.06091,0 -0.42592,-0.2129 -0.58424,-0.7972 -1.01016,-1.0101 -0.30117,-0.1506 -0.70898,0.1506 -1.01015,0 -0.42592,-0.213 -0.58423,-0.7972 -1.01015,-1.0102 -0.60234,-0.3011 -1.54412,0.4762 -2.02031,0 -0.23809,-0.2381 0.2381,-0.772 0,-1.0101 -0.50507,-0.5051 -2.52538,0.5051 -3.03045,0 -0.2381,-0.2381 0.23809,-0.7721 0,-1.0102 -0.4762,-0.4762 -1.41797,0.3012 -2.02031,0 -0.42592,-0.2129 -0.58423,-0.7972 -1.01015,-1.0101 -0.30117,-0.1506 -0.77206,0.2381 -1.01015,0 -0.2381,-0.2381 0.23809,-0.7721 0,-1.0102 -0.2381,-0.2381 -0.70899,0.1506 -1.01016,0 -0.42592,-0.2129 -0.58423,-0.7972 -1.01015,-1.0101 -0.30117,-0.1506 -0.77206,0.2381 -1.01015,0 -0.2381,-0.2381 0.15058,-0.709 0,-1.0102 -0.21296,-0.4259 -0.67344,-0.6734 -1.01015,-1.0101 -0.33672,-0.3367 -0.58424,-0.7972 -1.01016,-1.0102 -2.69374,0 0.33672,0.3367 -1.01015,-1.0101 -0.2381,-0.2381 -0.77206,0.2381 -1.01015,0 -0.2381,-0.2381 0.23809,-0.7721 0,-1.0102 -0.2381,-0.2381 -0.77206,0.2381 -1.01016,0 -0.23809,-0.2381 0.15059,-0.709 0,-1.0101 -0.21295,-0.426 -0.79719,-0.5843 -1.01015,-1.0102 -0.15058,-0.3012 0.2381,-0.7721 0,-1.0101 -0.23809,-0.2381 -0.77205,0.238 -1.01015,0 -0.47619,-0.4762 0.47619,-1.5442 0,-2.0204 -0.2381,-0.238 -0.77206,0.2381 -1.01015,0 -0.47619,-0.4761 0.47619,-1.5441 0,-2.0203 -0.2381,-0.2381 -0.77206,0.2381 -1.01016,0 -0.23809,-0.2381 0.2381,-0.772 0,-1.0101 -0.23809,-0.2381 -0.77205,0.2381 -1.01015,0 -0.47619,-0.4762 0.47619,-1.5441 0,-2.0203 -0.23809,-0.2381 -0.77206,0.2381 -1.01015,0 -0.47619,-0.4762 0.47619,-1.5441 0,-2.0203 -0.2381,-0.2381 -0.77206,0.2381 -1.01015,0 -0.47619,-0.4762 0.47619,-1.5441 0,-2.0203 -0.2381,-0.2381 -0.77206,0.2381 -1.01016,0 -0.23809,-0.2381 0.15059,-0.709 0,-1.0102 -0.21295,-0.42593 -0.79719,-0.58423 -1.01015,-1.01013 -0.15058,-0.3012 0.2381,-0.7721 0,-1.0102 -0.23809,-0.2381 -0.77206,0.2381 -1.01015,0 -0.47619,-0.4762 0.30117,-1.4179 0,-2.0203 -0.21296,-0.4259 -0.79719,-0.5842 -1.01015,-1.0101 -0.15059,-0.3012 0.23809,-0.7721 0,-1.0102 -0.2381,-0.2381 -0.77206,0.2381 -1.01016,0 -0.23809,-0.2381 0.2381,-0.7721 0,-1.0101 -0.0325,-0.033 -2.78546,0 -3.03045,0 -0.33672,0 -0.77206,-0.2381 -1.01016,0 -0.23809,0.238 0.2381,0.772 0,1.0101 -0.23809,0.2381 -0.77205,-0.2381 -1.01015,0 -0.23809,0.2381 0.2381,0.7721 0,1.0102 -0.23809,0.2381 -0.77206,-0.2381 -1.01015,0 -0.2381,0.2381 0.23809,0.772 0,1.0101 -0.47619,0.4762 -1.54412,-0.4762 -2.02031,0 -0.23809,0.2381 0.15059,0.709 0,1.0102 -0.21295,0.4259 -0.79719,0.5842 -1.01015,1.0101 -0.15058,0.3012 0.15059,0.709 0,1.0102 -0.21296,0.4259 -0.79719,0.5842 -1.01015,1.01013 -0.15059,0.3012 0.23809,0.7721 0,1.0102 -0.2381,0.2381 -0.77206,-0.2381 -1.01015,0 -0.50508,0.5051 0.50507,2.5254 0,3.0304 -1.34687,1.3469 -1.01016,-1.6836 -1.01016,1.0102 0,2.6937 0.33672,-0.3367 -1.01015,1.0101 -0.20651,0.2065 0.20026,2.63 0,3.0305 -0.21296,0.4259 -0.79719,0.5842 -1.01015,1.0101 -0.15059,0.3012 0.23809,0.7721 0,1.0102 -0.2381,0.2381 -0.77206,-0.2381 -1.01015,0 -0.2381,0.2381 0.23809,0.7721 0,1.0102 -0.2381,0.238 -0.77206,-0.2381 -1.01016,0 -0.23809,0.238 0.2381,0.772 0,1.0101 -0.23809,0.2381 -0.77205,-0.2381 -1.01015,0 -0.23809,0.2381 0.2381,0.7721 0,1.0102 -0.23809,0.2381 -0.77206,-0.2381 -1.01015,0 -0.2381,0.2381 0.23809,0.772 0,1.0101 -0.2381,0.2381 -0.77206,-0.2381 -1.01015,0 -0.2381,0.2381 0.23809,0.7721 0,1.0102 -0.2381,0.2381 -0.77206,-0.2381 -1.01016,0 -0.23809,0.2381 0.2381,0.772 0,1.0101 -0.47619,0.4762 -1.54411,-0.4762 -2.0203,0 -0.2381,0.2381 0.23809,0.7721 0,1.0102 -0.2381,0.2381 -0.77206,-0.2381 -1.01015,0 -0.2381,0.2381 0.23809,0.772 0,1.0101 -0.50508,0.5051 -2.52539,-0.5051 -3.03046,0 -0.2381,0.2381 0.23809,0.7721 0,1.0102 -0.47619,0.4762 -1.41797,-0.3012 -2.02031,0 -0.42591,0.2129 -0.58423,0.7972 -1.01015,1.0101 -0.80812,0.4041 -2.22234,-0.404 -3.03046,0 -0.42591,0.213 -0.58423,0.7972 -1.01015,1.0102 -0.80812,0.404 -2.22234,-0.4041 -3.03046,0 -0.42592,0.2129 -0.58423,0.7972 -1.01015,1.0101 -0.30117,0.1506 -0.70898,-0.1506 -1.01015,0 -0.42592,0.213 -0.58424,0.7972 -1.01016,1.0102 -0.30116,0.1506 -0.70898,-0.1506 -1.01015,0 -0.42592,0.2129 -0.58423,0.7972 -1.01015,1.0101 -0.26561,0.1328 -3.51238,0 -4.04061,0 -3.70389,0 -7.40779,0 -11.11168,0 -2.35702,0 -4.71404,0 -7.07107,0 -0.45493,0 -2.72303,0.1537 -3.03045,0 -0.42592,-0.2129 -0.58424,-0.7972 -1.01016,-1.0101 -0.40051,-0.2003 -2.82394,0.2065 -3.03045,0 -2.09005,-2.0901 3.19386,0.082 -1.01016,-2.0203 -0.40051,-0.2003 -2.82394,0.2065 -3.03045,0 -0.2381,-0.2381 0.23809,-0.7721 0,-1.0102 -0.2381,-0.2381 -0.70899,0.1506 -1.01016,0 -0.2682,-0.1341 -2.89635,-2.7622 -3.03045,-3.0304 -0.15059,-0.3012 0.23809,-0.7721 0,-1.0102 -0.2381,-0.2381 -0.77206,0.2381 -1.01016,0 -0.47619,-0.4762 0.47619,-1.5441 0,-2.0203 -0.23809,-0.2381 -0.77205,0.2381 -1.01015,0 -0.23809,-0.2381 0.2381,-0.772 0,-1.0101 -0.23809,-0.2381 -0.77206,0.2381 -1.01015,0 -0.20651,-0.2066 0.20026,-2.63 0,-3.0305 -0.21296,-0.4259 -0.7972,-0.5842 -1.01015,-1.0102 -0.20026,-0.4005 0.20651,-2.8239 0,-3.0304 -0.2381,-0.2381 -0.77206,0.2381 -1.01016,0 -0.50507,-0.5051 0.50508,-2.5254 0,-3.0305 -0.23809,-0.2381 -0.77205,0.2381 -1.01015,0 -0.31279,-0.3128 0.31279,-4.73793 0,-5.05073 -0.2381,-0.2381 -0.77206,0.2381 -1.01015,0 -0.47619,-0.4762 0.47619,-1.5441 0,-2.0203 -0.2381,-0.2381 -0.77206,0.2381 -1.01015,0 -0.4762,-0.4762 0.47619,-1.5442 0,-2.0203 -0.2381,-0.2381 -0.77206,0.2381 -1.01016,0 -0.47619,-0.4762 0.47619,-1.5442 0,-2.0203 -0.23809,-0.2381 -0.77205,0.238 -1.01015,0 -0.2381,-0.2381 0.2381,-0.7721 0,-1.0102 -0.47619,-0.4762 -1.54411,0.4762 -2.02031,0 -0.23809,-0.2381 0.2381,-0.7721 0,-1.0102 -0.23809,-0.238 -0.67343,0 -1.01015,0 -0.33672,0 -0.67343,0 -1.01015,0 -0.24499,0 -2.99797,-0.033 -3.03046,0 -0.23809,0.2381 0.2381,0.7721 0,1.0102 -0.23809,0.2381 -0.77206,-0.2381 -1.01015,0 -0.2381,0.2381 0.23809,0.7721 0,1.0102 -0.2381,0.238 -0.77206,-0.2381 -1.01015,0 -0.2381,0.238 0.23809,0.772 0,1.0101 -0.2381,0.2381 -0.77206,-0.2381 -1.01016,0 -0.47619,0.4762 0.4762,1.5441 0,2.0203 -0.23809,0.2381 -0.77205,-0.2381 -1.01015,0 -0.47619,0.4762 0.47619,1.5441 0,2.0203 -0.23809,0.2381 -0.77206,-0.2381 -1.01015,0 -0.47619,0.4762 0.47619,1.5441 0,2.02033 -0.2381,0.2381 -0.77206,-0.23813 -1.01015,0 -0.50508,0.5051 0.50507,2.5254 0,3.0305 -0.2381,0.2381 -0.77206,-0.2381 -1.01016,0 -0.23809,0.2381 0,0.6734 0,1.0101 0,0.3367 0,0.6735 0,1.0102 0,0.3367 0,1.3469 0,1.0101 0,-0.6734 0,-2.6937 0,-2.0203 0,1.0102 0,2.0203 0,3.0305 0,0.3367 0.2381,0.772 0,1.0101 -0.23809,0.2381 -0.77205,-0.2381 -1.01015,0 -0.50507,0.5051 0.50508,2.5254 0,3.0305 -0.23809,0.2381 -0.77206,-0.2381 -1.01015,0 -0.47619,0.4762 0.47619,1.5441 0,2.0203 -0.2381,0.2381 -0.77206,-0.2381 -1.01015,0 -0.2381,0.2381 0.23809,0.7721 0,1.0102 -0.2381,0.2381 -0.77206,-0.2381 -1.01016,0 -0.23809,0.2381 0.2381,0.772 0,1.0101 -0.23809,0.2381 -0.77205,-0.2381 -1.01015,0 -0.23809,0.2381 0.2381,0.7721 0,1.0102 -0.47619,0.4762 -1.54411,-0.4762 -2.0203,0 -0.2381,0.2381 0.23809,0.772 0,1.0101 -2.02817,2.0282 0.008,-2.0282 -2.02031,0 -0.23809,0.2381 0.2381,0.7721 0,1.0102 -0.23809,0.2381 -0.77206,-0.2381 -1.01015,0 -0.2381,0.2381 0.23809,0.772 0,1.0101 -0.50508,0.5051 -2.52538,-0.5051 -3.03046,0 -0.23809,0.2381 0.2381,0.7721 0,1.0102 -1.69014,1.6901 -0.33016,-1.6902 -2.0203,0 -0.2381,0.2381 0.23809,0.772 0,1.0101 -0.2381,0.2381 -0.70899,-0.1506 -1.01016,0 -0.42591,0.213 -0.58423,0.7972 -1.01015,1.0102 -0.60234,0.3011 -1.54411,-0.4762 -2.0203,0 -0.2381,0.2381 0.23809,0.772 0,1.0101 -0.50508,0.5051 -2.52539,-0.505 -3.03046,0 -0.2381,0.2381 0.23809,0.7721 0,1.0102 -0.47619,0.4762 -1.54412,-0.4762 -2.02031,0 -0.23809,0.2381 0.2381,0.772 0,1.0101 -0.23809,0.2381 -0.67343,0 -1.01015,0 -0.33672,0 -0.67343,0 -1.01015,0 -5.05076,0 -10.10153,0 -15.15229,0 -0.37097,0 -3.99996,0.041 -4.04061,0 -0.2381,-0.2381 0.23809,-0.772 0,-1.0101 -0.2381,-0.2381 -0.70898,0.1506 -1.01015,0 -0.42592,-0.213 -0.58424,-0.7972 -1.01016,-1.0102 -0.30116,-0.1506 -0.77205,0.2381 -1.01015,0 -0.23809,-0.2381 0.2381,-0.772 0,-1.0101 -2.09004,-2.0901 0.0817,3.1938 -2.0203,-1.0102 -0.15059,-0.3011 0.23809,-0.772 0,-1.0101 -0.2381,-0.2381 -0.77206,0.2381 -1.01016,0 -0.23809,-0.2381 0.2381,-0.7721 0,-1.0102 -0.23809,-0.2381 -0.77205,0.2381 -1.01015,0 -0.23809,-0.2381 0.2381,-0.772 0,-1.0101 -0.23809,-0.2381 -0.77206,0.2381 -1.01015,0 -0.2381,-0.2381 0.23809,-0.7721 0,-1.0102 -0.2381,-0.2381 -0.77206,0.2381 -1.01015,0 -0.2381,-0.2381 0.23809,-0.772 0,-1.0101 -0.2381,-0.2381 -0.77206,0.2381 -1.01016,0 -0.23809,-0.2381 0.15059,-0.709 0,-1.0102 -0.21295,-0.4259 -0.79719,-0.5842 -1.01015,-1.0101 -0.15058,-0.3012 0.2381,-0.7721 0,-1.0102 -0.23809,-0.2381 -0.77206,0.2381 -1.01015,0 -0.47619,-0.4762 0.47619,-1.5441 0,-2.0203 -0.2381,-0.2381 -0.77206,0.2381 -1.01015,0 -0.2381,-0.2381 0.23809,-0.7721 0,-1.0102 -0.2381,-0.238 -0.77206,0.2381 -1.01016,0 -0.23809,-0.238 0.15059,-0.7089 0,-1.0101 -0.21295,-0.4259 -0.79719,-0.5842 -1.01015,-1.0102 -0.15058,-0.3011 0.15059,-0.7089 0,-1.0101 -2.102,-4.204 0.0697,1.0799 -2.0203,-1.0102 -0.2381,-0.2381 0.23809,-0.772 0,-1.0101 -0.2381,-0.2381 -0.77206,0.2381 -1.01016,0 -0.23809,-0.2381 0.2381,-0.7721 0,-1.0102 -0.23809,-0.2381 -0.77205,0.2381 -1.01015,0 -0.23809,-0.2381 0.15059,-0.709 0,-1.0101 -0.21296,-0.4259 -0.79719,-0.5843 -1.01015,-1.0102 -0.15059,-0.3011 0.23809,-0.772 0,-1.0101 -0.2381,-0.2381 -0.70898,0.1506 -1.01015,0 -0.41795,-0.209 -2.74502,-2.60233 -3.03046,-3.03053 -0.41765,-0.6265 -0.59251,-1.3938 -1.01015,-2.0203 -0.26415,-0.3962 -0.74601,-0.6139 -1.01016,-1.0101 -0.41764,-0.6265 -0.5925,-1.3939 -1.01015,-2.0203 -0.52829,-0.7925 -1.49202,-1.2279 -2.0203,-2.0204 -0.41765,-0.6264 -0.59251,-1.39378 -1.01016,-2.02025 -0.26414,-0.39622 -0.67343,-0.67344 -1.01015,-1.01015 -1.34687,-1.34687 -2.69374,-2.69374 -4.04061,-4.04061 -0.67343,-0.67344 -1.49202,-1.22788 -2.0203,-2.02031 -0.41765,-0.62647 -0.59251,-1.39383 -1.01016,-2.0203 -1.02808,-1.54212 -3.01253,-1.48834 -4.04061,-3.03046 -0.98138,-1.47208 -0.63063,-2.10401 -2.0203,-3.03046 -0.62647,-0.41765 -1.48791,-0.47775 -2.02031,-1.01015 -0.53239,-0.5324 -0.5925,-1.39384 -1.01015,-2.02031 -0.79243,-1.18864 -2.17331,-1.8876 -3.03046,-3.03045 -0.45175,-0.60234 -0.47775,-1.48791 -1.01015,-2.02031 -0.5324,-0.5324 -1.48791,-0.47776 -2.02031,-1.01015 -0.53239,-0.5324 -0.55839,-1.41797 -1.01015,-2.02031 -0.57143,-0.7619 -1.44887,-1.2584 -2.0203,-2.0203 -0.45176,-0.60234 -0.5584,-1.41797 -1.01016,-2.02031 -1.14285,-1.52381 -2.89775,-2.5168 -4.040606,-4.04061 -0.903508,-1.20468 -1.116797,-2.83593 -2.020305,-4.04061 -0.571428,-0.7619 -1.448876,-1.2584 -2.020305,-2.0203 -0.451754,-0.60234 -0.592506,-1.39384 -1.010152,-2.02031 -0.264143,-0.39621 -0.74601,-0.61394 -1.010153,-1.01015 -0.417647,-0.62647 -0.673435,-1.34687 -1.010153,-2.02031 -0.673435,-1.34687 -1.34687,-2.69374 -2.020305,-4.04061 -0.994858,-1.98971 -2.204595,-3.99625 -3.030457,-6.06091 -0.395455,-0.98864 -0.614698,-2.04182 -1.010153,-3.03046 -0.279629,-0.69907 -0.730524,-1.32123 -1.010152,-2.0203 -0.395455,-0.98864 -0.614698,-2.04183 -1.010153,-3.03046 -0.279629,-0.69907 -0.730524,-1.32124 -1.010153,-2.02031 -1.1771,-2.94275 -2.027998,-6.08399 -3.030457,-9.09137 -0.336718,-1.01015 -0.673435,-2.0203 -1.010153,-3.03046 -0.336717,-1.01015 -0.835101,-1.98015 -1.010152,-3.03046 -0.166068,-0.9964 0,-2.0203 0,-3.03045 0,-1.01016 0,-2.02031 0,-3.03046 0,-3.03046 0,-6.06092 0,-9.09137 0,-1.68359 0.27678,-3.39009 0,-5.05077 -0.175051,-1.0503 -0.835102,-1.98015 -1.010153,-3.03045 -0.166068,-0.99641 0,-2.02031 0,-3.03046 0,-1.01015 0,-2.02031 0,-3.03046 0,-4.04061 0,-8.08122 0,-12.12183 0,-2.0203 0,-4.04061 0,-6.06091 0,-0.67344 0.163332,-1.36698 0,-2.02031 -0.182611,-0.73044 -0.862492,-1.282 -1.010152,-2.02031 -0.330179,-1.65089 0,-3.36717 0,-5.05076 0,-2.69374 0,-5.38748 0,-8.08122 0,-1.68359 0.27678,-3.39008 0,-5.05076 -0.175051,-1.05031 -0.80133,-1.98634 -1.010153,-3.03046 -0.132071,-0.66036 0,-1.34687 0,-2.0203 0,-2.02031 0,-4.04061 0,-6.06092 0,-0.67343 0.163332,-1.36698 0,-2.0203 -0.182611,-0.73045 -0.827542,-1.28987 -1.010152,-2.02031 -0.438469,-1.75387 0.438468,-4.30704 0,-6.06091 -0.182611,-0.73045 -0.772058,-1.30602 -1.010153,-2.02031 -0.322646,-0.96794 0.311939,-4.11495 0,-5.05076 -0.150585,-0.45176 -0.859568,-0.5584 -1.010153,-1.01015 -0.15401,-0.46204 0.224748,-3.59112 0,-4.04062 -0.212958,-0.42591 -0.797193,-0.58423 -1.010152,-1.01015 -0.184088,-0.36817 0,-4.46871 0,-5.05076 0,-2.02031 0,-4.04061 0,-6.06092 0,-0.45493 0.153712,-2.72303 0,-3.03045 -0.212959,-0.42592 -0.797194,-0.58424 -1.010153,-1.01016 -0.132805,-0.26561 0,-3.51238 0,-4.04061 0,-3.70389 0,-7.40778 0,-11.11167 0,-1.68359 0,-3.36718 0,-5.05077 0,-0.33671 -0.238095,-0.77205 0,-1.01015 0.476191,-0.47619 1.544115,0.47619 2.020305,0 0.238096,-0.23809 -0.238095,-0.77206 0,-1.01015 0.238096,-0.2381 0.690715,0.10648 1.010153,0 1.720228,-0.57341 3.367175,-1.34687 5.050763,-2.02031 z"
       id="path3019"
       inkscape:connector-curvature="0" />
    <path
       style="fill:#0188a8;fill-opacity:1"
       d="m 260,620.23685 c -138.07119,0 -250,111.92881 -250,250 0,66.58487 26.028576,127.10232 68.46875,171.90625 1.3206,0.1173 2.671761,0.1875 4.0625,0.1875 l 0.09375,0 c 18.55639,0 30.87959,-10.5077 40.5625,-34 0.13472,-0.6741 0.36384,-1.215 0.6875,-1.7812 l 0.0312,0 c 0.88997,-1.4294 2.29651,-2.375 3.96875,-2.375 1.64533,0 3.02047,0.9456 3.9375,2.375 l 0.0937,0 c 0.0262,0.2696 0.13776,0.3467 0.21875,0.5625 0.16183,0.3776 0.29836,0.5602 0.40625,0.9375 9.5479,23.2226 21.50993,33.6935 39.5,34.125 17.93597,-0.4315 29.91229,-10.8328 39.40625,-33.8125 0.18889,-0.6741 0.44903,-1.215 0.71875,-1.7813 0.97097,-1.4296 2.31921,-2.375 3.9375,-2.375 1.61828,0 3.00198,0.9454 4,2.375 l 0.0312,0 c 0.0811,0.2698 0.16481,0.3157 0.21875,0.5313 0.16183,0.3778 0.36087,0.5912 0.46875,0.9687 9.68285,23.7621 21.91098,34.2813 40.65625,34.2813 l 0.125,0 c 18.55639,0 30.7817,-10.5077 40.4375,-34 0.18871,-0.6741 0.44904,-1.215 0.71875,-1.7813 0.94409,-1.4296 2.31921,-2.375 3.9375,-2.375 1.6183,0 3.05607,0.9454 4,2.375 l 0.0312,0 c 0.0808,0.2698 0.22731,0.3157 0.28125,0.5313 0.16183,0.3778 0.29837,0.5912 0.40625,0.9687 9.54792,23.3842 21.60681,33.8638 39.8125,34.1875 18.0709,-0.3237 30.05439,-10.7874 39.65625,-33.875 0.13477,-0.6742 0.39509,-1.2147 0.71875,-1.7812 0.94392,-1.4296 2.29215,-2.375 3.9375,-2.375 1.67222,0 3.07441,0.9454 3.9375,2.375 l 0.0937,0 c 0.0534,0.2697 0.17772,0.3155 0.3125,0.5312 0.10788,0.3777 0.24022,0.5599 0.375,0.9375 9.65579,23.7618 21.87553,34.2813 40.59375,34.2813 l 0.15625,0 c 0.10555,0 0.20736,7e-4 0.3125,0 C 483.87808,997.53577 510,936.93261 510,870.23685 c 0,-138.07119 -111.92881,-250 -250,-250 z m 1.71875,17.03125 c 32.36581,0 58.59375,6.15378 58.59375,13.625 l 0,29.0625 38.34375,0 0,33.53125 22.53125,0 0,75.90625 -93.75,-68.125 c -14.15992,-10.27626 -37.3086,-10.27626 -51.46875,0 l -93.75,68.1875 0,-75.96875 22.5625,0 0,-33.53125 38.3125,0 0,-29.0625 c 0,-7.47122 26.2592,-13.625 58.625,-13.625 z m -6.75,98.4375 0,227.46875 c 0,3.72207 3.02793,6.71875 6.75,6.71875 3.72207,0 6.75,-2.99668 6.75,-6.71875 l 0,-227.46875 c 6.93156,0.97097 13.6284,2.89736 18.96875,6.78125 l 93.75,68.09375 21.96875,16 c 14.16015,10.27603 21.30495,32.29597 15.9375,48.9375 l -54.03125,137.2813 c -4.20755,1.7798 -8.72355,2.9189 -13.875,3 -18.20587,-0.324 -30.20626,-10.7762 -39.78125,-34.18755 -0.10789,-0.3776 -0.27567,-0.5599 -0.4375,-0.9375 -0.0535,-0.21577 -0.20023,-0.29278 -0.28125,-0.5625 l -0.0312,0 c -0.94411,-1.42937 -2.35047,-2.375 -3.96875,-2.375 -1.61829,0 -2.99361,0.94563 -3.9375,2.375 -0.2968,0.56651 -0.58817,1.10707 -0.75,1.78125 -9.65579,23.4921 -21.84986,34 -40.40625,34 l -0.15625,0 c -18.74509,0 -30.91525,-10.5463 -40.625,-34.28125 -0.10788,-0.3776 -0.33818,-0.5599 -0.5,-0.9375 -0.0535,-0.21577 -0.13794,-0.29278 -0.21875,-0.5625 -0.99805,-1.42937 -2.4088,-2.375 -4,-2.375 -1.64538,0 -2.96653,0.94563 -3.9375,2.375 -0.2968,0.56651 -0.55692,1.10707 -0.71875,1.78125 -9.49396,22.9797 -21.47031,33.4123 -39.40625,33.8438 -5.04378,-0.1351 -9.47556,-1.2426 -13.65625,-2.9688 l -54.03125,-137.25 c -5.367308,-16.64131 1.7505,-38.65709 15.9375,-48.90625 l 21.9375,-15.9375 93.75,-68.15625 c 5.34036,-3.8839 12.06844,-5.81445 19,-6.8125 z m -30.625,75.21875 c -5.87979,0 -10.625,4.74105 -10.625,10.59375 0,5.87979 4.74521,10.65625 10.625,10.65625 5.85292,0 10.59375,-4.77646 10.59375,-10.65625 0,-5.8527 -4.74083,-10.59375 -10.59375,-10.59375 z m 75.5625,0 c -5.87978,0 -10.625,4.74105 -10.625,10.59375 0,5.87979 4.74522,10.65625 10.625,10.65625 5.85294,0 10.59375,-4.77646 10.59375,-10.65625 0,-5.8527 -4.74081,-10.59375 -10.59375,-10.59375 z"
       id="path3800"
       inkscape:connector-curvature="0" />
  </g>
</svg>
