<?xml version="1.0" encoding="utf-8"?>
<!-- Generator: Adobe Illustrator 16.0.3, SVG Export Plug-In . SVG Version: 6.00 Build 0)  -->
<!DOCTYPE svg PUBLIC "-//W3C//DTD SVG 1.1//EN" "http://www.w3.org/Graphics/SVG/1.1/DTD/svg11.dtd">
<svg version="1.1" id="Ebene_1" xmlns="http://www.w3.org/2000/svg" xmlns:xlink="http://www.w3.org/1999/xlink" x="0px" y="0px"
	 width="40px" height="40px" viewBox="0 0 40 40" enable-background="new 0 0 40 40" xml:space="preserve">
<g>
	<path fill="#FFFFFF" d="M35.546,36.499c0.238,0.017,0.481-0.035,0.694-0.147c0.455-0.25,0.65-0.74,0.474-1.188l-4.426-11.085
		c0.252-1.54,0.382-3.222,0.397-5.004c0.064-8.742-3.842-14.589-4.013-14.836c-0.198-0.295-0.554-0.438-0.942-0.461l-0.223-0.014
		c-0.39-0.024-0.763,0.074-0.994,0.344c-0.197,0.224-4.793,5.589-5.804,14.272c-0.171,1.459-0.251,2.853-0.241,4.168l-6.185,11.231
		c-0.233,0.427-0.101,0.935,0.322,1.24c0.195,0.137,0.432,0.215,0.67,0.229c0.271,0.02,0.55-0.05,0.78-0.201l6.338-4.188
		c0.059,0.08,0.119,0.158,0.182,0.229l-0.702,1.309c-0.185,0.342-0.134,0.773,0.129,1.08c0.144,0.159,1.427,1.603,3.563,1.732
		l0.222,0.014c2.142,0.133,3.594-1.14,3.752-1.281c0.298-0.269,0.399-0.674,0.265-1.035l-0.533-1.416l5.524,4.718
		C35.008,36.387,35.273,36.484,35.546,36.499z"/>
</g>
<text transform="matrix(1 0 0 1 5.2622 18.5869)" fill="#FFFFFF" font-family="'MyriadPro-Regular'" font-size="12.7734">2x</text>
</svg>
