<?xml version="1.0" encoding="utf-8"?>
<!-- Generator: Adobe Illustrator 16.0.3, SVG Export Plug-In . SVG Version: 6.00 Build 0)  -->
<!DOCTYPE svg PUBLIC "-//W3C//DTD SVG 1.1//EN" "http://www.w3.org/Graphics/SVG/1.1/DTD/svg11.dtd">
<svg version="1.1" id="Ebene_1" xmlns="http://www.w3.org/2000/svg" xmlns:xlink="http://www.w3.org/1999/xlink" x="0px" y="0px"
	 width="40px" height="40px" viewBox="0 0 40 40" enable-background="new 0 0 40 40" xml:space="preserve">
<g>
	<path fill="#FFFFFF" d="M19.998,4.25c-8.697,0-15.748,7.051-15.748,15.75c0,8.698,7.051,15.749,15.748,15.749
		c8.698,0,15.751-7.051,15.751-15.749C35.749,11.302,28.696,4.25,19.998,4.25z M21.282,32.755v-7.078h-2.565v7.078
		c-6.056-0.601-10.872-5.417-11.473-11.473h7.078v-2.565H7.245c0.601-6.056,5.417-10.872,11.473-11.472v7.078h2.565V7.245
		c6.056,0.601,10.872,5.417,11.473,11.472h-7.078v2.565h7.078C32.154,27.338,27.338,32.153,21.282,32.755z"/>
</g>
</svg>
