<?xml version="1.0" encoding="utf-8"?>
<!-- Generator: Adobe Illustrator 16.0.3, SVG Export Plug-In . SVG Version: 6.00 Build 0)  -->
<!DOCTYPE svg PUBLIC "-//W3C//DTD SVG 1.1//EN" "http://www.w3.org/Graphics/SVG/1.1/DTD/svg11.dtd">
<svg version="1.1" id="Ebene_1" xmlns="http://www.w3.org/2000/svg" xmlns:xlink="http://www.w3.org/1999/xlink" x="0px" y="0px"
	 width="40px" height="40px" viewBox="0 0 40 40" enable-background="new 0 0 40 40" xml:space="preserve">
<path fill="#FFFFFF" d="M32.435,6.763c-10.217,0-11.946-3.878-11.962-3.915c-0.074-0.189-0.259-0.316-0.471-0.321
	c0,0-0.002,0-0.007,0c-0.203,0-0.391,0.127-0.469,0.312C19.511,2.88,17.744,6.763,7.564,6.763c-0.283,0-0.509,0.23-0.509,0.509
	v17.38c0,7.115,12.222,12.55,12.738,12.778c0.068,0.03,0.135,0.041,0.207,0.041c0.067,0,0.139-0.011,0.202-0.041
	c0.522-0.229,12.742-5.663,12.742-12.778V7.272C32.943,6.994,32.717,6.763,32.435,6.763z M30.135,23.642
	c0,5.566-9.568,9.826-9.976,10.002c-0.051,0.025-0.107,0.034-0.159,0.034c-0.056,0-0.107-0.009-0.164-0.034
	c-0.401-0.176-9.97-4.436-9.97-10.002V10.037c0-0.219,0.178-0.4,0.398-0.4c7.972,0,9.352-3.039,9.366-3.068
	c0.063-0.146,0.208-0.246,0.369-0.246c0.002,0,0.004,0,0.004,0c0.165,0.002,0.308,0.101,0.368,0.252
	c0.012,0.028,1.366,3.062,9.365,3.062c0.222,0,0.398,0.181,0.398,0.4V23.642L30.135,23.642z M28.226,23.494
	c0,4.521-7.767,7.975-8.099,8.117c-0.04,0.023-0.087,0.03-0.129,0.03c-0.046,0-0.13-22.206,0-22.206H20
	c0.134,0.002,0.253,0.081,0.299,0.205c0.009,0.022,1.109,2.485,7.602,2.485c0.182,0,0.325,0.146,0.325,0.323V23.494z"/>
</svg>
