<?xml version="1.0" encoding="utf-8"?>
<!-- Generator: Adobe Illustrator 16.0.0, SVG Export Plug-In . SVG Version: 6.00 Build 0)  -->
<!DOCTYPE svg PUBLIC "-//W3C//DTD SVG 1.1//EN" "http://www.w3.org/Graphics/SVG/1.1/DTD/svg11.dtd">
<svg version="1.1" id="Ebene_1" xmlns="http://www.w3.org/2000/svg" xmlns:xlink="http://www.w3.org/1999/xlink" x="0px" y="0px"
	 width="40px" height="40px" viewBox="0 0 40 40" enable-background="new 0 0 40 40" xml:space="preserve">
<path fill="#FFFFFF" d="M20,4.334c-8.639,0-15.667,7.028-15.667,15.667c0,8.638,7.028,15.666,15.667,15.666
	c8.639,0,15.667-7.027,15.667-15.666C35.667,11.362,28.639,4.334,20,4.334z M20,34.526c-8.009,0-14.525-6.516-14.525-14.525
	c0-8.01,6.516-14.526,14.525-14.526c8.01,0,14.525,6.516,14.525,14.526C34.525,28.011,28.01,34.526,20,34.526z M30.505,27.231
	c0,0.316-0.256,0.57-0.571,0.57c-0.316,0-0.571-0.254-0.571-0.57s0.255-0.572,0.571-0.572
	C30.249,26.659,30.505,26.915,30.505,27.231z M13.569,24.853c0,0.316-0.256,0.572-0.571,0.572c-0.316,0-0.571-0.256-0.571-0.572
	s0.255-0.57,0.571-0.57C13.313,24.282,13.569,24.536,13.569,24.853z M15.535,25.425c0,0.314-0.255,0.568-0.571,0.568
	s-0.571-0.254-0.571-0.568c0-0.316,0.255-0.572,0.571-0.572S15.535,25.108,15.535,25.425z M14.393,23.188
	c-0.315,0-0.571-0.256-0.571-0.572c0-0.314,0.255-0.57,0.571-0.57s0.571,0.256,0.571,0.57
	C14.964,22.933,14.708,23.188,14.393,23.188z M13.696,13.975c-0.386,0-0.698-0.312-0.698-0.698c0-0.385,0.312-0.697,0.698-0.697
	c0.385,0,0.697,0.312,0.697,0.697C14.393,13.663,14.081,13.975,13.696,13.975z M20.036,15.411l-0.018,4.591h12.01
	c0-6.657-5.346-12.053-12.054-12.053l0.019,1.393c0.453-0.021,4.68-0.091,7.788,3.958l-0.604,0.464
	c-2.981-3.884-7.171-3.663-7.213-3.66l0.006,1.704c0.581-0.111,3.284-0.405,5.859,2.957l-0.604,0.463
	c-2.539-3.313-5.239-2.666-5.266-2.661l0.007,2.084c0.442-0.068,2.514-0.263,4.056,1.792l-0.609,0.458
	C22.016,15.036,20.116,15.395,20.036,15.411z M30.286,16.1c0.184,0,0.333,0.149,0.333,0.333s-0.149,0.333-0.333,0.333
	c-0.186,0-0.335-0.149-0.335-0.333S30.101,16.1,30.286,16.1z"/>
</svg>
