<?xml version="1.0" encoding="utf-8"?>
<!-- Generator: Adobe Illustrator 16.0.3, SVG Export Plug-In . SVG Version: 6.00 Build 0)  -->
<!DOCTYPE svg PUBLIC "-//W3C//DTD SVG 1.1//EN" "http://www.w3.org/Graphics/SVG/1.1/DTD/svg11.dtd">
<svg version="1.1" id="Ebene_1" xmlns="http://www.w3.org/2000/svg" xmlns:xlink="http://www.w3.org/1999/xlink" x="0px" y="0px"
	 width="21px" height="21px" viewBox="9.5 9.5 21 21" enable-background="new 9.5 9.5 21 21" xml:space="preserve">
<g>
	<path fill="#FFFFFF" d="M20,13.866c-3.387,0-6.133,2.746-6.133,6.133c0,3.388,2.746,6.135,6.133,6.135
		c3.387,0,6.134-2.747,6.134-6.135C26.134,16.612,23.387,13.866,20,13.866z M20.501,24.967v-2.756h-1v2.756
		c-2.359-0.233-4.234-2.108-4.468-4.468h2.756V19.5h-2.756c0.234-2.359,2.11-4.234,4.468-4.468v2.757h1v-2.757
		c2.357,0.234,4.233,2.11,4.467,4.468h-2.755v0.999h2.755C24.734,22.858,22.858,24.732,20.501,24.967z"/>
</g>
</svg>
