<?xml version="1.0" encoding="utf-8"?>
<!-- Generator: Adobe Illustrator 16.0.0, SVG Export Plug-In . SVG Version: 6.00 Build 0)  -->
<!DOCTYPE svg PUBLIC "-//W3C//DTD SVG 1.1//EN" "http://www.w3.org/Graphics/SVG/1.1/DTD/svg11.dtd">
<svg version="1.1" id="Ebene_1" xmlns="http://www.w3.org/2000/svg" xmlns:xlink="http://www.w3.org/1999/xlink" x="0px" y="0px"
	 width="40px" height="40px" viewBox="0 0 40 40" enable-background="new 0 0 40 40" xml:space="preserve">
<g>
	<path fill="#FFFFFF" d="M31.783,36.326c0.167,0.053,0.349,0.058,0.521,0.008c0.366-0.107,0.592-0.436,0.545-0.796l-1.223-8.937
		c0.445-1.094,0.831-2.315,1.152-3.633c1.563-6.447-0.198-11.424-0.277-11.634c-0.089-0.252-0.318-0.417-0.59-0.498l-0.155-0.047
		c-0.274-0.084-0.557-0.074-0.769,0.088c-0.182,0.132-4.385,3.325-6.616,9.572c-0.377,1.05-0.677,2.067-0.897,3.042l-6.357,7.264
		c-0.239,0.277-0.234,0.672,0.014,0.971c0.114,0.133,0.269,0.23,0.437,0.28c0.188,0.062,0.4,0.054,0.591-0.018l5.241-2.034
		c0.026,0.072,0.058,0.139,0.088,0.197l-0.727,0.853c-0.191,0.226-0.23,0.552-0.097,0.821c0.073,0.139,0.737,1.419,2.231,1.876
		l0.16,0.048c1.502,0.457,2.758-0.24,2.894-0.316c0.261-0.148,0.401-0.435,0.37-0.721l-0.135-1.135l3.112,4.411
		C31.419,36.154,31.59,36.273,31.783,36.326z"/>
</g>
<text transform="matrix(1 0 0 1 4.4287 18.4209)" fill="#FFFFFF" font-family="'MyriadPro-Bold'" font-size="17">+3</text>
</svg>
