<?xml version="1.0" encoding="utf-8"?>
<!-- Generator: Adobe Illustrator 16.0.0, SVG Export Plug-In . SVG Version: 6.00 Build 0)  -->
<!DOCTYPE svg PUBLIC "-//W3C//DTD SVG 1.1//EN" "http://www.w3.org/Graphics/SVG/1.1/DTD/svg11.dtd">
<svg version="1.1" id="Layer_1" xmlns="http://www.w3.org/2000/svg" xmlns:xlink="http://www.w3.org/1999/xlink" x="0px" y="0px"
	 width="126px" height="126px" viewBox="0 0 126 126" enable-background="new 0 0 126 126" xml:space="preserve">
<path fill="#5CB85C" d="M100.518,25.488C79.829,4.799,46.17,4.799,25.486,25.483C4.798,46.169,4.8,79.829,25.488,100.518
	c20.682,20.684,54.341,20.684,75.028-0.004C121.201,79.829,121.199,46.171,100.518,25.488z M94.729,94.729
	c-17.494,17.494-45.961,17.496-63.456,0.002c-17.498-17.498-17.496-45.966,0-63.46c17.494-17.493,45.959-17.495,63.458,0.002
	C112.225,48.766,112.223,77.234,94.729,94.729z M43.211,48.641c0-3.423,2.777-6.201,6.201-6.201c3.423,0,6.2,2.777,6.2,6.201
	c0,3.426-2.777,6.203-6.2,6.203C45.988,54.844,43.211,52.067,43.211,48.641z M71.328,48.641c0-3.423,2.779-6.201,6.203-6.201
	c3.423,0,6.201,2.777,6.201,6.201c0,3.426-2.777,6.203-6.201,6.203S71.328,52.067,71.328,48.641z M85.988,74.039
	c-3.844,8.887-12.844,14.629-22.928,14.629c-10.301,0-19.354-5.771-23.064-14.703c-0.636-1.529,0.089-3.285,1.62-3.921
	c0.376-0.155,0.766-0.229,1.15-0.229c1.176,0,2.292,0.695,2.771,1.85c2.777,6.686,9.655,11.004,17.523,11.004
	c7.69,0,14.528-4.322,17.42-11.011c0.658-1.521,2.424-2.222,3.944-1.563S86.646,72.518,85.988,74.039z"/>
</svg>
